<?xml version="1.0" standalone="no"?>
<!DOCTYPE svg PUBLIC "-//W3C//DTD SVG 20010904//EN"
 "http://www.w3.org/TR/2001/REC-SVG-20010904/DTD/svg10.dtd">
<svg version="1.0" xmlns="http://www.w3.org/2000/svg"
 width="300.000000pt" height="270.000000pt" viewBox="0 0 300.000000 270.000000"
 preserveAspectRatio="xMidYMid meet">
<metadata>
Created by potrace 1.10, written by Peter Selinger 2001-2011
</metadata>
<g transform="translate(0.000000,270.000000) scale(0.100000,-0.100000)"
fill="#000000" stroke="none">
<path d="M666 2281 c-9 -10 -32 -27 -51 -37 -34 -18 -35 -21 -35 -76 0 -53 2
-59 28 -72 16 -8 34 -22 41 -30 19 -23 59 -20 91 7 15 12 34 27 43 32 10 6 17
30 19 66 4 52 3 56 -21 67 -14 6 -38 23 -53 37 -32 30 -40 31 -62 6z m68 -62
c32 -25 34 -64 4 -96 -44 -47 -108 -19 -108 47 0 28 6 42 23 53 30 22 50 21
81 -4z"/>
<path d="M2153 2230 c-22 -5 -59 -18 -81 -29 -40 -20 -192 -162 -209 -194 -8
-15 -30 -5 -188 90 -176 107 -179 108 -240 108 -62 0 -65 -2 -236 -106 -255
-156 -470 -293 -506 -323 -17 -15 -42 -48 -54 -74 -22 -45 -23 -53 -20 -339
l2 -292 -38 -20 c-21 -10 -73 -55 -115 -99 -57 -59 -81 -94 -98 -138 -42 -112
-10 -235 83 -321 86 -79 164 -103 261 -78 72 19 113 45 200 130 35 35 68 59
73 55 4 -5 93 -57 197 -116 226 -128 248 -134 349 -86 101 47 614 350 661 391
10 9 27 34 37 56 17 36 19 72 19 382 l0 343 41 21 c23 11 74 53 114 93 56 56
77 86 94 132 82 217 -120 459 -346 414z m146 -62 c84 -26 171 -155 171 -253
-1 -73 -27 -120 -116 -206 -114 -110 -191 -132 -286 -83 l-30 16 38 39 c33 34
44 39 83 39 42 0 49 4 123 78 74 74 78 81 78 123 0 61 -28 109 -80 136 -82 43
-129 25 -237 -90 -39 -40 -53 -64 -53 -84 0 -21 -12 -41 -45 -72 l-45 -43 -11
29 c-20 51 -14 127 14 175 26 44 120 140 170 173 63 41 141 49 226 23z m-809
-21 c19 -7 99 -54 178 -105 79 -51 146 -92 151 -92 4 0 7 -27 7 -60 0 -33 -2
-60 -3 -60 -1 0 -64 40 -141 89 -178 114 -192 121 -245 121 -46 0 -57 -6 -362
-195 -182 -112 -252 -163 -282 -201 l-27 -36 3 -262 3 -261 -52 0 -51 0 3 295
c3 289 3 296 26 327 26 37 493 338 651 420 69 36 88 39 141 20z m764 -127 c30
-11 66 -65 66 -98 0 -26 -113 -152 -137 -152 -11 0 -10 5 3 25 20 31 12 84
-17 111 -23 20 -81 23 -104 4 -8 -7 -15 -8 -15 -3 0 5 30 35 66 66 67 58 90
66 138 47z m-778 -45 c20 -8 95 -52 167 -98 73 -46 151 -94 175 -107 23 -13
42 -27 42 -30 0 -4 -9 -15 -19 -24 -17 -16 -25 -16 -57 -6 -84 28 -262 -9
-326 -67 -16 -15 -20 -15 -35 -1 -59 52 -175 83 -280 75 -63 -5 -90 -13 -169
-53 -51 -26 -108 -62 -125 -80 l-31 -32 1 -233 c1 -177 5 -240 16 -261 15 -30
5 -37 -18 -13 -8 8 -17 11 -21 8 -3 -4 -6 7 -6 24 0 16 3 33 6 36 4 4 6 106 5
227 -1 147 2 220 9 220 5 0 10 9 10 19 0 34 53 76 255 201 110 68 231 143 269
167 78 48 82 49 132 28z m662 -122 c6 -11 6 -25 0 -39 -16 -34 -256 -254 -277
-254 -22 0 -51 25 -51 43 -1 7 59 69 132 139 102 98 139 127 160 128 15 0 31
-7 36 -17z m-860 -196 c28 -8 70 -26 92 -42 l40 -28 0 -268 0 -269 -21 21
c-12 12 -46 33 -78 48 -52 24 -66 26 -181 25 -69 0 -137 -6 -152 -12 l-28 -12
0 238 0 238 68 32 c37 17 74 33 82 36 31 9 127 6 178 -7z m497 4 c3 -5 1 -12
-5 -16 -5 -3 -10 -19 -10 -36 0 -29 0 -29 -62 -29 -70 0 -124 -12 -153 -34
-35 -26 -6 -36 55 -20 61 16 176 19 185 5 3 -5 21 -15 40 -21 29 -9 41 -9 66
4 18 9 33 16 33 16 1 0 0 -93 -1 -207 -1 -115 -6 -207 -10 -205 -118 44 -250
42 -353 -5 -36 -16 -71 -37 -79 -46 -7 -9 -16 -17 -20 -17 -3 0 -5 119 -3 265
l3 264 35 28 c20 14 59 35 87 44 55 19 182 26 192 10z m262 -42 c6 -6 22 -17
35 -23 24 -13 25 -18 9 -81 -6 -23 -11 -152 -11 -302 l0 -262 -25 -26 c-27
-26 -40 -31 -49 -16 -3 4 6 13 19 19 18 9 25 19 25 41 0 16 -5 33 -10 36 -7 4
-6 14 2 28 9 16 14 91 15 261 l2 238 -24 24 c-13 13 -31 24 -40 24 -14 0 -14
3 1 25 18 27 34 31 51 14z m-17 -333 c0 -222 -2 -248 -16 -242 -9 3 -20 6 -25
6 -5 0 -9 109 -9 260 l0 261 25 -18 24 -18 1 -249z m-1145 -215 l-25 -26 0
242 c0 238 0 241 23 256 l22 14 3 -230 2 -231 -25 -25z m1325 149 c0 -386 8
-360 -135 -448 -171 -105 -510 -305 -550 -323 -72 -33 -108 -26 -236 47 -62
36 -150 86 -195 111 l-80 46 15 46 c20 58 18 56 33 43 7 -5 87 -53 178 -106
182 -106 208 -113 282 -75 42 22 353 205 486 287 40 24 79 54 87 65 12 18 15
74 15 328 l0 307 50 -1 50 -1 0 -326z m-915 -140 c68 -26 135 -86 135 -120 0
-21 -3 -20 -41 15 -58 52 -120 76 -216 82 -74 5 -82 8 -92 31 l-12 25 83 -6
c50 -3 107 -14 143 -27z m597 1 c80 -27 71 -38 -24 -28 -168 17 -274 -5 -360
-74 -29 -23 -38 -26 -38 -14 0 27 31 65 74 90 94 55 233 65 348 26z m-867 -21
c26 -29 13 -48 -121 -180 -102 -101 -115 -111 -145 -108 -22 2 -34 10 -40 25
-7 19 10 40 121 152 76 78 136 131 148 131 10 0 27 -9 37 -20z m-217 -41 l25
-10 -41 -42 c-29 -30 -51 -43 -73 -44 -43 -3 -102 -46 -161 -116 -39 -47 -48
-65 -48 -96 0 -52 35 -101 92 -129 40 -20 52 -22 85 -13 72 20 203 159 203
216 0 11 17 38 39 59 l38 38 12 -33 c25 -72 8 -159 -43 -219 -60 -72 -162
-151 -212 -166 -84 -24 -167 1 -236 73 -76 79 -100 192 -58 279 30 60 176 198
226 212 41 11 109 7 152 -9z m452 -25 c31 -9 66 -29 84 -46 68 -68 136 -69
206 -2 57 53 76 57 279 55 101 -1 188 -4 193 -7 4 -3 8 -14 8 -24 0 -18 -12
-19 -214 -22 l-214 -3 -23 -29 c-24 -30 -90 -65 -124 -66 -45 0 -97 23 -131
58 l-36 37 -119 3 -118 4 21 29 c20 26 27 29 78 29 31 0 80 -7 110 -16z m39
-134 c96 -81 203 -80 296 2 l44 38 178 -2 c166 -3 176 -4 148 -18 -16 -8 -133
-77 -259 -152 -139 -83 -240 -138 -256 -138 -14 0 -69 25 -121 56 -51 31 -137
80 -190 110 -90 51 -98 58 -112 99 l-14 45 119 0 119 0 48 -40z m-612 -8 c-31
-32 -33 -51 -13 -91 25 -47 83 -64 124 -35 42 29 22 -1 -35 -53 -32 -29 -68
-56 -80 -59 -59 -16 -123 32 -123 92 0 32 8 45 60 97 33 33 60 64 60 69 0 4 8
8 17 8 13 0 11 -6 -10 -28z"/>
<path d="M2145 2138 c-37 -13 -199 -171 -220 -214 -8 -18 -15 -47 -14 -66 1
-31 1 -32 9 -8 4 14 11 38 15 54 4 18 41 63 99 122 83 82 97 93 138 99 26 4
66 4 90 1 l43 -6 -30 15 c-35 16 -87 18 -130 3z"/>
<path d="M2386 1975 c11 -26 14 -54 11 -85 -5 -37 -4 -41 4 -20 14 34 5 108
-15 129 -16 15 -16 13 0 -24z"/>
<path d="M2325 1778 c-28 -29 -41 -45 -30 -37 23 17 43 36 69 67 35 40 11 23
-39 -30z"/>
<path d="M1070 1568 c-20 -8 -36 -21 -38 -32 -3 -16 0 -18 25 -12 73 17 161
18 215 2 69 -20 68 -20 68 2 0 11 -12 25 -27 32 -38 18 -199 23 -243 8z"/>
<path d="M1080 1468 c-43 -12 -54 -22 -47 -42 5 -13 12 -13 53 0 63 19 128 17
191 -5 56 -19 63 -18 63 9 0 39 -171 64 -260 38z"/>
<path d="M1105 1373 c-49 -11 -75 -26 -75 -45 0 -15 5 -18 17 -14 9 4 46 12
83 18 61 11 74 10 135 -11 53 -17 70 -19 76 -9 12 19 -9 37 -64 53 -48 14
-128 18 -172 8z"/>
<path d="M1075 1266 c-25 -7 -41 -19 -43 -30 -4 -16 1 -17 40 -10 72 15 189 9
226 -10 30 -16 33 -16 39 0 19 50 -153 83 -262 50z"/>
<path d="M1588 1465 c-50 -16 -63 -28 -55 -49 4 -11 16 -10 59 5 65 22 129 24
193 4 50 -15 65 -13 65 9 0 38 -175 58 -262 31z"/>
<path d="M1615 1371 c-65 -18 -86 -31 -83 -49 4 -19 10 -19 93 4 51 14 70 15
125 5 93 -17 92 -17 97 -4 2 6 -7 19 -21 28 -29 19 -163 29 -211 16z"/>
<path d="M1615 1271 c-65 -18 -87 -31 -83 -49 2 -9 11 -15 19 -13 8 2 38 11
67 19 44 13 67 14 125 5 40 -6 78 -12 86 -14 28 -7 22 27 -6 40 -34 16 -167
23 -208 12z"/>
<path d="M655 985 c-27 -9 -66 -41 -118 -95 -80 -83 -108 -128 -106 -177 0
-22 5 -14 21 31 15 43 37 76 87 129 70 74 124 106 179 107 20 0 31 4 27 10 -8
14 -42 12 -90 -5z"/>
<path d="M410 1346 c-19 -23 -8 -61 18 -64 46 -7 72 47 33 68 -26 14 -36 13
-51 -4z"/>
<path d="M2416 1345 c-20 -20 -20 -39 -2 -55 35 -28 93 11 70 48 -15 23 -48
27 -68 7z"/>
<path d="M2114 470 c-29 -12 -64 -58 -64 -85 0 -27 52 -75 80 -75 10 0 32 12
49 26 43 36 42 73 -4 113 -20 17 -37 31 -38 30 -1 0 -12 -4 -23 -9z m50 -62
c14 -20 14 -24 -1 -40 -27 -30 -73 -17 -73 22 0 41 50 53 74 18z"/>
</g>
</svg>
